<?xml version="1.0" encoding="UTF-8"?>
<!DOCTYPE svg PUBLIC "-//W3C//DTD SVG 1.1//EN" "http://www.w3.org/Graphics/SVG/1.1/DTD/svg11.dtd">
<!-- Creator: CorelDRAW X7 -->
<svg xmlns="http://www.w3.org/2000/svg" xml:space="preserve" width="3.33333in" height="2.23999in" version="1.1" style="shape-rendering:geometricPrecision; text-rendering:geometricPrecision; image-rendering:optimizeQuality; fill-rule:evenodd; clip-rule:evenodd"
viewBox="0 0 3333 2240"
 xmlns:xlink="http://www.w3.org/1999/xlink">
 <defs>
  <style type="text/css">
   <![CDATA[
    .fil5 {fill:#61434D}
    .fil8 {fill:#64705B}
    .fil12 {fill:#8B4838}
    .fil6 {fill:#9B786D}
    .fil1 {fill:#9B786D}
    .fil2 {fill:#9C5867}
    .fil10 {fill:#9C5867}
    .fil0 {fill:#D1D9CB}
    .fil3 {fill:#EE8874}
    .fil11 {fill:#F0DBE6}
    .fil7 {fill:#F3EAEA}
    .fil4 {fill:#F4AB9B}
    .fil9 {fill:white}
   ]]>
  </style>
 </defs>
 <g id="Layer_x0020_1">
  <metadata id="CorelCorpID_0Corel-Layer"/>
  <path class="fil0" d="M518 280l-13 13c-3,7 -1,3 -3,8l-52 112c0,1 -1,1 -1,2l-7 12c-5,11 -8,21 -16,31 -3,3 -3,2 -5,5 0,1 -1,4 -2,6 -3,11 -8,14 -12,24l-32 55c-5,9 0,7 -21,37 0,1 -1,1 -1,2 -9,13 -4,10 -18,31l-10 15c-1,0 -1,1 -2,1 0,1 -1,1 -1,2 -1,0 -1,0 -2,1 -5,6 -6,14 -10,21 -1,1 -1,1 -2,2 0,0 0,1 -1,2 -5,7 0,5 -9,13l-10 9c0,0 -2,4 -3,5 -19,34 -25,32 -28,37l-3 7c0,1 0,2 -1,2 0,1 -2,4 -2,4 0,1 -1,1 -1,2l-67 89c-1,1 -2,2 -3,3l-18 23c-6,7 -11,13 -17,21l-27 36c-12,18 -27,31 -36,47l-15 32c0,1 -3,7 -3,8l-20 45c-11,25 -12,62 -22,80 -9,19 -8,36 -10,62 0,4 0,4 -1,8l-1 5c0,1 -1,1 -1,2 0,1 0,1 -1,2 -5,15 -3,33 -4,52 -2,41 -7,102 -1,143 3,22 2,49 6,68l17 95c0,6 0,13 0,19 1,15 7,12 13,42 6,27 15,47 21,72 0,0 2,6 2,6l63 140c0,1 1,1 1,2 0,1 1,1 1,2l51 80c0,1 1,3 1,4l11 15c3,8 1,0 0,14l12 0c1,0 1,0 2,1l45 50c21,17 20,16 20,25 16,1 18,9 28,18 1,0 1,1 2,1l66 45c5,2 9,3 14,6 12,6 3,8 20,15 4,2 6,2 12,4 7,2 10,4 14,6l77 29c11,3 20,5 29,7 6,2 27,5 29,6 42,17 87,8 130,15 52,7 90,-4 134,-4 51,0 97,-10 145,-17 27,-4 48,-10 77,-14 7,-1 24,-2 31,-4l29 -7c27,-3 60,-18 85,-27l52 -16c35,-12 69,-28 103,-39l43 -12c1,-1 1,-1 2,-1l53 -12c29,-5 50,-10 80,-10 15,0 19,-2 33,-2 33,-2 74,-4 106,3 12,3 21,1 33,3 10,2 19,5 28,7l27 9c19,8 43,11 61,18 14,5 28,5 40,12 12,8 46,12 64,21 12,6 31,5 45,12l37 13c7,3 24,3 30,5 13,2 17,4 29,7 43,11 103,22 144,36 11,4 33,5 43,9l101 25c7,2 25,3 31,4l43 9c0,0 1,1 1,1 1,0 2,1 2,1 12,3 22,2 34,5l14 4c2,1 5,1 8,1l185 13c36,0 67,0 102,-6 10,-2 15,-6 27,-8 19,-3 28,-2 46,-10 15,-7 36,-7 52,-14l17 -6c1,-1 2,-1 2,-1l7 -5c1,-1 1,-1 2,-1l66 -32c13,-7 29,-14 40,-24l34 -22c0,-1 1,-1 2,-1l17 -13c6,-4 7,-3 13,-6 8,-5 15,-18 26,-27 7,-6 1,2 11,-8 0,-1 3,-4 3,-5 1,0 1,-1 2,-1l2 -3c1,0 3,-2 4,-4l10 -9c18,-8 6,2 14,-15 4,-8 -1,-2 7,-7 9,-6 12,-12 18,-19 16,-20 2,1 23,-32l8 -11c1,-1 1,-1 1,-2 1,0 1,-1 1,-1l18 -24c0,-1 2,-3 2,-3l22 -30c1,-2 6,-10 7,-13 2,-6 2,-7 4,-13l16 -38c2,-6 8,-19 11,-27 3,-10 4,-18 7,-29 4,-11 2,-5 5,-11l8 -33c6,-20 13,-89 13,-109 0,-46 2,-94 -4,-140l-16 -79c-5,-18 -3,-38 -8,-55 -1,-1 -2,-4 -3,-5 0,-1 -1,-1 -1,-2l-3 -5c-6,-14 -7,-34 -14,-49l-19 -52c-9,-22 -13,-49 -25,-68l-19 -53c0,-1 0,-1 0,-2l-6 -19c0,-1 0,-1 -1,-2l-27 -90c-6,-15 -10,-16 -16,-39l-10 -31c0,-1 0,-1 -1,-2l-17 -48c-2,-10 -2,-26 -7,-36 -1,-1 -2,-2 -3,-6 -2,-6 -1,-8 -3,-16l-17 -54c-9,-19 4,-9 -12,-40l-3 -16c-2,-15 -4,-31 -9,-46 -5,-13 -5,-32 -9,-46 -7,-22 -17,-102 -18,-125 0,-19 1,-47 -3,-66 -2,-5 -3,-9 -4,-16l-32 -124c0,-1 0,-1 0,-2l-60 -95c-1,0 -1,-1 -2,-2l-10 -11c-9,-8 -8,-11 -17,-18l-10 -10c-8,-13 -11,-13 -23,-23 -1,0 -1,-1 -2,-1l-17 -12c-9,-7 -30,-26 -40,-30l-43 -21 -72 -20c-13,-1 -18,-5 -28,-7 -27,-7 -111,3 -139,4l-207 33c-21,7 -50,6 -67,14l-58 15c-9,2 -18,3 -31,4 -6,1 -9,1 -13,3 -15,5 7,2 -15,5 -13,2 -22,0 -33,4l-58 11c-74,14 -58,13 -128,15 -23,1 -40,6 -66,6 -42,0 -203,-1 -225,-7 -18,-4 10,-2 -15,-4 -25,-3 -50,-1 -72,-7 -1,0 -2,0 -2,0l-54 -9c-20,-5 -24,-7 -44,-9l-13 -5c-21,-12 -46,-10 -68,-20 -1,0 -11,-4 -14,-4l-57 -18c-10,-2 -29,-4 -40,-9l-48 -10c-11,0 -18,-6 -28,-7 -53,-8 -29,-7 -49,-11l-41 -6c-14,-1 -23,-3 -33,-5 -41,-5 -87,-12 -131,-11l-69 -3c-27,0 -66,7 -93,15 -10,3 -24,6 -31,13l-15 11c-11,6 -26,6 -34,16l-36 23c-1,0 -1,0 -2,1 0,0 -1,1 -1,1 -1,0 -1,1 -1,1 -7,8 -2,7 -13,13 -12,6 -24,13 -33,24l-44 51c-1,1 -4,3 -5,4l-24 35c0,0 -1,1 -1,2l-12 15c-2,5 -3,6 -5,11l-10 23c0,0 -1,1 -1,2l-2 18z"/>
  <path class="fil1" d="M1223 1374c-11,16 -23,39 -33,56l-237 395c-2,9 -1,5 -6,12 -3,10 -9,18 -15,27 -7,9 -13,15 -14,25l176 5 113 3c21,-1 32,-31 53,-61 10,-16 21,-30 31,-48l0 -6c-32,-6 -134,-60 -86,-77 1,0 4,-1 4,-1 6,-2 4,-1 7,-3 -13,-11 -52,-28 -38,-47 7,-9 14,-7 27,-7 -9,-18 -33,-16 -15,-44 26,-6 48,5 69,10 -9,-11 -42,-22 -31,-44 13,-27 97,13 116,22 13,7 46,27 54,28 16,-24 13,-32 46,-58 15,-26 87,-126 92,-142 0,0 -2,-2 -2,-1l-91 -18c-12,3 -8,2 -15,13 -26,2 -59,-13 -87,-14 3,-7 5,-10 6,-18 -31,-4 -90,-20 -117,-19l-7 12z"/>
  <path class="fil2" d="M711 725c23,-12 20,-28 28,-55 6,-20 5,-52 17,-65 -38,-2 -62,-17 -64,-55 -2,-18 5,-38 19,-42 17,-6 30,7 42,15 5,-11 -4,-4 31,-16 11,-4 26,-10 38,-12 6,15 7,33 16,47 11,5 26,5 40,5 62,-1 48,-16 55,-39 6,-18 -1,-7 9,-11 6,4 3,1 6,9 0,0 2,11 2,12 1,8 2,16 3,24 36,21 8,25 -3,33 10,3 18,-3 23,-11 2,-20 -10,-17 -15,-27 -2,-5 -3,-13 -4,-19 -2,-10 -3,-15 1,-20 9,13 9,34 25,39 14,4 46,-2 62,-3 9,-12 9,-9 14,-28 8,-40 11,-10 11,-32 -9,-7 -13,-5 -25,-7 -30,0 -51,6 -79,12 -34,6 -51,-5 -77,-1 -4,1 -19,-1 -23,0 -5,1 -1,0 -5,1 -12,3 -9,3 -20,-1 -23,-3 -49,12 -70,16 11,-19 45,-43 64,-64l23 -20 -21 32c14,-4 41,-17 57,-24 18,-9 34,-26 47,-33 -4,9 -13,14 -19,24 66,-19 82,-39 98,-44 1,10 4,15 7,24 3,9 2,15 11,19 10,-38 21,-59 5,-101 -26,-73 -64,-50 -103,-80 -133,-101 -294,7 -297,189 -1,56 15,67 28,99 -21,11 -42,5 -65,38 -33,48 -16,115 25,150 23,19 44,24 83,22z"/>
  <path class="fil3" d="M2480 473c2,27 -18,104 12,183 13,34 40,88 75,105 9,5 13,2 16,10l21 4c20,1 40,1 57,0 57,-6 20,-2 53,-11 14,-3 53,-24 62,-31 9,-7 12,-5 14,-18 0,-39 3,-60 9,-96l-7 -3c32,-10 58,-33 52,-76 -3,-18 -13,-33 -35,-30 -19,1 -30,14 -42,21 2,-17 -11,-66 -15,-86 -13,-3 -42,2 -59,2 -21,-1 -38,-5 -58,-7l37 10c12,2 31,0 39,5 -18,12 -95,-12 -113,-20 -18,-7 -32,-17 -45,-26 -17,-12 -28,-27 -37,-31 -15,22 -27,83 -36,95z"/>
  <path class="fil4" d="M711 725c21,-2 5,-1 11,3 -3,12 -15,30 -24,39 2,39 16,59 24,83 5,17 3,10 12,22l23 29c29,33 90,51 122,32 15,-10 24,-15 31,-26 1,0 1,-1 1,-1 22,-35 30,-77 28,-129 -15,-5 -15,-30 -9,-42 4,-7 22,-10 44,-32 13,-13 25,-29 33,-46 21,-42 29,-70 35,-123 -16,1 -48,7 -62,3 -16,-5 -16,-26 -25,-39 -4,5 -3,10 -1,20 1,6 2,14 4,19 5,10 17,7 15,27 -5,8 -13,14 -23,11 11,-8 39,-12 3,-33 -1,-8 -2,-16 -3,-24 0,-1 -2,-12 -2,-12 -3,-8 0,-5 -6,-9 -10,4 -3,-7 -9,11 -7,23 7,38 -55,39 -2,14 2,16 -7,23 -5,5 -9,8 -18,6 -19,-4 -18,-18 -15,-34 -9,-14 -10,-32 -16,-47 -12,2 -27,8 -38,12 -35,12 -26,5 -31,16 -12,-8 -25,-21 -42,-15 -14,4 -21,24 -19,42 2,38 26,53 64,55 -12,13 -11,45 -17,65 -8,27 -5,43 -28,55z"/>
  <path class="fil5" d="M2480 473c9,-12 21,-73 36,-95 9,4 20,19 37,31 13,9 27,19 45,26 18,8 95,32 113,20 -8,-5 -27,-3 -39,-5l-37 -10c20,2 37,6 58,7 17,0 46,-5 59,-2 4,20 17,69 15,86 12,-7 23,-20 42,-21 22,-3 32,12 35,30 6,43 -20,66 -52,76l7 3c27,-15 55,-33 49,-76 -3,-21 -10,-13 3,-32 22,-32 41,-96 14,-135 -7,-11 -15,-12 -15,-24 1,-18 5,-20 -3,-37 -17,-39 -52,-67 -91,-82 -26,-10 -47,-9 -71,-15 70,-5 111,34 125,36 -6,-24 -134,-81 -249,-6 -60,40 -46,64 -75,92 -33,30 -17,93 -6,133z"/>
  <path class="fil3" d="M2431 1969c9,-5 18,-4 25,-9 2,-24 -4,-112 -7,-136 -6,-1 -26,-11 -31,-14 -8,-4 -6,-4 -15,-7 -24,-9 -51,-21 -77,-28l0 -48 0 46c-17,-1 -25,-8 -37,-15 -18,-11 -85,-53 -98,-43 -20,14 4,40 17,51 9,8 10,2 13,14 -18,11 -76,7 -120,50 -22,20 6,27 9,29 -6,8 -27,18 -32,27 -12,24 15,27 26,32l0 17c2,7 5,9 10,12 10,6 20,8 35,8 16,23 23,23 56,26 25,2 55,2 80,-1 23,-3 129,-20 146,-11z"/>
  <path class="fil3" d="M1727 1165l30 -15c13,-7 19,-12 29,-18 11,-6 17,-12 26,-20 8,-5 20,-15 23,-24 -31,-34 -36,-62 -62,-115 -9,-17 -22,-39 -31,-56 -6,-12 -25,-57 -43,-46 -10,14 -15,26 -9,47 2,9 13,29 14,37l-1 5c0,0 0,1 0,2 -15,5 14,0 -7,1 -39,3 -160,-52 -192,-39 -11,5 -8,16 -8,27 -25,2 -29,-4 -46,9 -2,21 2,20 12,30l-3 3c-5,4 -1,1 -6,4 -33,22 13,43 33,51 -2,23 -12,23 35,49 87,50 190,8 206,68z"/>
  <path class="fil4" d="M1444 1561c-33,26 -30,34 -46,58 -8,-1 -41,-21 -54,-28 -19,-9 -103,-49 -116,-22 -11,22 22,33 31,44 -21,-5 -43,-16 -69,-10 -18,28 6,26 15,44 -13,0 -20,-2 -27,7 -14,19 25,36 38,47 -3,2 -1,1 -7,3 0,0 -3,1 -4,1 -48,17 54,71 86,77l0 6c14,-8 44,13 89,-12 78,-44 45,-111 93,-181 8,-12 17,-24 9,-39 -15,-9 -28,3 -38,5z"/>
  <g id="_2315472028800">
   <path class="fil6" d="M2583 771c-35,-7 -18,10 -26,36 -12,8 -41,10 -56,15 -18,7 -34,15 -49,25 -128,81 -130,189 -182,256 -83,107 -298,80 -406,-5 -6,-4 -14,-13 -21,-17l-8 7c-3,9 -15,19 -23,24 -9,8 -15,14 -26,20 -10,6 -16,11 -29,18l-30 15 -8 5c59,142 252,296 406,326 53,10 111,9 163,-9 13,-4 31,-15 44,-18l-6 258 0 48c26,7 53,19 77,28 9,3 7,3 15,7 5,3 25,13 31,14l1 -14c31,0 77,-13 107,-20 6,-1 4,-1 7,-1 1,0 1,0 2,0l-110 27c0,54 8,107 8,161 65,0 145,2 206,-17l34 -7c12,-4 0,-1 10,-4 5,-2 4,-1 10,-2l33 -11c5,-2 5,-2 11,-4l19 -8c38,-12 135,-70 165,-101l32 -28c1,0 1,-1 2,-1l87 -101c14,-26 40,-41 66,-116 16,-47 32,-90 42,-143 19,-102 1,-235 -30,-325 -49,-141 -148,-228 -275,-280 -11,-5 -23,-9 -33,-13 -18,-7 -19,-2 -24,-22 -6,-24 -7,-60 -14,-80l-15 1c-2,13 -5,11 -14,18 -9,7 -48,28 -62,31 -33,9 4,5 -53,11 -17,1 -37,1 -57,0l-21 -4z"/>
   <path class="fil6" d="M2449 1824c3,24 9,112 7,136 -7,5 -16,4 -25,9 42,33 130,58 197,62 90,5 151,-7 220,-39 110,-51 192,-134 202,-256 2,-20 11,-19 23,-43l-87 101c-1,0 -1,1 -2,1l-32 28c-30,31 -127,89 -165,101l-19 8c-6,2 -6,2 -11,4l-33 11c-6,1 -5,0 -10,2 -10,3 2,0 -10,4l-34 7c-61,19 -141,17 -206,17 0,-54 -8,-107 -8,-161l110 -27c-1,0 -1,0 -2,0 -3,0 -1,0 -7,1 -30,7 -76,20 -107,20l-1 14z"/>
  </g>
  <path class="fil4" d="M843 1663c-3,8 -11,12 -20,20l-47 40 1 12c3,18 9,39 13,57 5,23 5,39 8,63 65,9 100,-2 149,-18 5,-7 4,-3 6,-12 0,-13 5,-13 9,-19 0,-1 0,-2 1,-2l47 -92c3,-7 14,-29 20,-33 -15,0 -22,-6 -35,-9 -10,-2 -22,-4 -35,-6 -27,-5 -49,-7 -79,-7 -12,-5 -25,5 -38,6z"/>
  <path class="fil7" d="M553 1963c40,6 113,-32 142,-55 40,-32 23,-18 82,-27 21,-3 22,-4 21,-26 -3,-24 -3,-40 -8,-63 -4,-18 -10,-39 -13,-57l-9 -30c-25,-1 -68,15 -90,9 -61,-18 -143,-78 -171,-136 -28,-54 -40,-97 -37,-167 1,-30 5,-60 12,-90 3,-14 22,-70 20,-76 -15,15 -35,119 -37,149 -4,68 9,149 47,204l15 20c29,34 55,55 95,77 32,17 44,17 60,25 12,6 20,74 22,92 7,48 19,67 -1,85 -32,26 -87,53 -131,61l-19 5z"/>
  <path class="fil4" d="M838 478c4,-21 44,-31 66,-24 0,9 -1,7 -6,11 -13,10 -7,-1 -12,13 26,-4 43,7 77,1 28,-6 49,-12 79,-12l-2 -6c-16,4 -38,3 -52,-6 -8,-5 -6,-4 -8,-11 20,-13 49,3 61,12 -2,-13 -7,-35 -6,-48 -9,-4 -8,-10 -11,-19 -3,-9 -6,-14 -7,-24 -16,5 -32,25 -98,44 6,-10 15,-15 19,-24 -13,7 -29,24 -47,33 -16,7 -43,20 -57,24l21 -32 -23 20c-19,21 -53,45 -64,64 21,-4 47,-19 70,-16z"/>
  <g id="_2315472028416">
   <path class="fil8" d="M553 1963l19 -5c44,-8 99,-35 131,-61 20,-18 8,-37 1,-85 -2,-18 -10,-86 -22,-92 -16,-8 -28,-8 -60,-25 -40,-22 -66,-43 -95,-77l-15 -20c-38,-55 -51,-136 -47,-204 2,-30 22,-134 37,-149 2,6 -17,62 -20,76 -7,30 -11,60 -12,90 -3,70 9,113 37,167 28,58 110,118 171,136 22,6 65,-10 90,-9l9 30 -1 -12 47 -40c9,-8 17,-12 20,-20 -27,-18 -109,-23 -87,-52 8,-12 23,-5 37,0 14,5 24,9 37,13 25,8 49,16 74,24 38,1 7,-13 90,-9 5,8 2,4 8,10 19,18 12,15 28,24 10,-23 28,-50 41,-76l119 -225 33 2 7 -12c27,-1 86,15 117,19l10 -14c6,-7 10,-5 21,-5 -23,-150 -72,-268 -143,-373 -55,-82 -189,-182 -285,-212l-11 0c2,52 -6,94 -28,129 0,0 0,1 -1,1 -7,11 -16,16 -31,26 -32,19 -93,1 -122,-32l-23 -29c-9,-12 -7,-5 -12,-22 -8,-24 -22,-44 -24,-83 -20,-11 -153,66 -174,79 -97,63 -195,168 -252,268 -106,187 -121,450 -27,635 44,86 108,163 196,196 68,24 69,11 112,18z"/>
   <path class="fil8" d="M798 1855c1,22 0,23 -21,26 -59,9 -42,-5 -82,27 -29,23 -102,61 -142,55 73,51 206,60 294,42 69,-14 134,-41 193,-75 15,-9 43,-25 54,-36l-176 -5c1,-10 7,-16 14,-25 6,-9 12,-17 15,-27 -49,16 -84,27 -149,18z"/>
   <path class="fil8" d="M691 1721c13,43 25,114 28,162 19,-3 63,-3 71,-14 13,-18 -19,-131 -25,-158 -12,-1 -62,7 -74,10z"/>
  </g>
  <path class="fil9" d="M1030 1673l0 6c-6,4 -17,26 -20,33l-47 92c-1,0 -1,1 -1,2 -4,6 -9,6 -9,19l237 -395c10,-17 22,-40 33,-56l-33 -2 -119 225c-13,26 -31,53 -41,76z"/>
  <path class="fil10" d="M843 1663c13,-1 26,-11 38,-6 7,-6 -2,-3 11,-5 3,0 13,0 17,0 -3,-3 -1,-2 -5,-4 -25,-8 -49,-16 -74,-24 -13,-4 -23,-8 -37,-13 -14,-5 -29,-12 -37,0 -22,29 60,34 87,52z"/>
  <path class="fil4" d="M898 502c1,14 0,19 -14,18 -3,-5 -5,-12 -2,-19 1,-9 8,-10 -22,-10 -12,0 -19,1 -30,2 0,8 6,31 9,37 10,19 70,12 79,5 7,-6 11,-27 10,-39l-27 -2c-5,5 -2,0 -3,8z"/>
  <path class="fil4" d="M965 495c2,38 17,40 53,36 33,-4 39,-27 33,-48 -31,-8 -61,6 -86,12z"/>
  <path class="fil10" d="M1347 1381c-1,8 -3,11 -6,18 28,1 61,16 87,14 7,-11 3,-10 15,-13 -5,-9 0,-5 4,-19 -6,-3 -26,-6 -36,-8 -11,-3 -27,-3 -33,-11 -11,0 -15,-2 -21,5l-10 14z"/>
  <path class="fil4" d="M904 1648c4,2 2,1 5,4 -4,0 -14,0 -17,0 -13,2 -4,-1 -11,5 30,0 52,2 79,7 13,2 25,4 35,6 13,3 20,9 35,9l0 -6c-16,-9 -9,-6 -28,-24 -6,-6 -3,-2 -8,-10 -83,-4 -52,10 -90,9z"/>
  <path class="fil11" d="M663 322c19,-19 54,-104 160,-120l35 -6c-72,-11 -126,21 -167,71 -10,12 -24,34 -28,55z"/>
  <path class="fil3" d="M2644 624c24,0 29,1 35,-9 4,-5 4,-7 4,-15 -1,-14 1,-5 -4,-11 -9,-12 -18,-9 -35,-9 -1,4 -8,7 -8,20 0,17 3,11 8,24z"/>
  <path class="fil2" d="M838 478c11,4 8,4 20,1 4,-1 0,0 5,-1 4,-1 19,1 23,0 5,-14 -1,-3 12,-13 5,-4 6,-2 6,-11 -22,-7 -62,3 -66,24z"/>
  <path class="fil5" d="M2685 512c-2,-19 -43,-35 -65,-32 0,12 12,18 24,24 13,5 26,10 41,8z"/>
  <path class="fil3" d="M878 547c-14,0 -29,0 -40,-5 -3,16 -4,30 15,34 9,2 13,-1 18,-6 9,-7 5,-9 7,-23z"/>
  <path class="fil5" d="M2487 485c9,7 22,5 34,2 12,-3 26,-6 27,-19 -21,-8 -56,0 -61,17z"/>
  <path class="fil2" d="M1040 461l1 -5c-12,-9 -41,-25 -61,-12 2,7 0,6 8,11 14,9 36,10 52,6z"/>
  <path class="fil11" d="M1041 358c6,-42 -16,-83 -42,-97 10,14 20,23 28,42 8,20 9,36 14,55z"/>
  <path class="fil12" d="M1756 1061c-6,-5 -14,-8 -21,-12 -40,-23 -29,-50 -29,-63 0,-7 0,-4 -2,-6 -26,42 36,87 52,81z"/>
  <path class="fil5" d="M2647 547c7,-6 9,-8 9,-19 -1,-12 -5,-11 -16,-11 -5,11 -10,24 7,30z"/>
  <path class="fil5" d="M2504 503c-5,14 -6,20 6,28 18,-8 12,-36 -6,-28z"/>
  <path class="fil12" d="M882 501c-3,7 -1,14 2,19 14,1 15,-4 14,-18 -1,-1 -5,-3 -7,-11l-9 10z"/>
  <path class="fil12" d="M1013 512c7,-2 9,0 9,-11 1,-10 -2,-12 -9,-14 -10,7 -10,19 0,25z"/>
 </g>
</svg>
