<?xml version="1.0" encoding="UTF-8"?>
<!DOCTYPE svg PUBLIC "-//W3C//DTD SVG 1.1//EN" "http://www.w3.org/Graphics/SVG/1.1/DTD/svg11.dtd">
<!-- Creator: CorelDRAW X7 -->
<svg xmlns="http://www.w3.org/2000/svg" xml:space="preserve" width="0.66665in" height="0.219047in" version="1.1" style="shape-rendering:geometricPrecision; text-rendering:geometricPrecision; image-rendering:optimizeQuality; fill-rule:evenodd; clip-rule:evenodd"
viewBox="0 0 667 219"
 xmlns:xlink="http://www.w3.org/1999/xlink">
 <defs>
  <style type="text/css">
   <![CDATA[
    .fil1 {fill:#54B863}
    .fil2 {fill:#B5DE9B}
    .fil0 {fill:#59372D;fill-rule:nonzero}
    .fil3 {fill:#59372D;fill-rule:nonzero}
   ]]>
  </style>
 </defs>
 <g id="Layer_x0020_1">
  <metadata id="CorelCorpID_0Corel-Layer"/>
  <g id="_1462405989984">
   <g>
    <path class="fil0" d="M289 66l0 32 -25 0 0 45c0,7 1,10 4,11 2,2 4,2 7,2 4,0 8,0 14,-2l0 24 0 11 0 5 -42 0 -169 0 -4 0 -9 0 -1 0c-18,-1 -33,-5 -45,-13 -13,-9 -19,-23 -19,-43l0 -113 52 0 0 107c0,8 1,14 5,17 3,4 9,6 16,6 6,0 11,-2 15,-4 4,-3 6,-6 7,-9 1,-3 1,-10 1,-20l0 -97 40 0 0 53 26 -53 0 0 55 110 0 -37 -18 0 0 -32 18 0 1 -40 46 -1 0 41 25 0z"/>
    <path class="fil1" d="M188 126c-2,-9 -5,-17 -6,-27 -10,10 -22,15 -28,20 -5,4 -14,12 -14,25 6,2 11,4 14,7 0,0 0,0 0,0 2,2 4,5 5,7 4,-19 10,-24 12,-36l-4 25c-2,11 -2,19 0,30 30,-1 30,-32 21,-51z"/>
    <path class="fil2" d="M158 179c-12,-9 -8,-11 -18,-21 11,11 13,15 21,20 0,-12 -2,-19 -9,-25 -4,-4 -19,-10 -27,-8 6,7 -5,37 33,34z"/>
   </g>
   <path class="fil3" d="M406 58c10,0 16,-5 16,-15l0 -19 -8 0 0 18c0,7 -3,9 -8,9 -4,0 -7,-2 -7,-9l0 -18 -8 0 0 19c0,10 6,15 15,15z"/>
   <path id="1" class="fil3" d="M433 28c2,0 4,-2 4,-4 0,-3 -2,-4 -4,-4 -3,0 -5,1 -5,4 0,2 2,4 5,4zm-6 39c6,0 9,-4 9,-10l0 -25 -7 0 0 25c0,3 -1,4 -3,4 -1,0 -3,0 -3,-1l-2 6c1,1 3,1 6,1z"/>
   <path id="2" class="fil3" d="M462 32l0 12c0,5 -3,7 -6,7 -3,0 -5,-2 -5,-6l0 -13 -8 0 0 14c0,8 5,12 11,12 3,0 6,-1 8,-4l0 3 7 0 0 -25 -7 0z"/>
   <path id="3" class="fil3" d="M417 124l8 0 -15 -34 -8 0 -15 34 8 0 3 -7 16 0 3 7zm-17 -13l6 -13 5 13 -11 0z"/>
   <polygon id="4" class="fil3" points="428,124 435,124 435,88 428,88 "/>
   <path id="5" class="fil3" d="M459 117c-1,1 -2,1 -3,1 -2,0 -4,-1 -4,-3l0 -11 7 0 0 -6 -7 0 0 -6 -7 0 0 6 -4 0 0 6 4 0 0 11c0,6 4,9 10,9 2,0 4,0 6,-1l-2 -6z"/>
   <path id="6" class="fil3" d="M489 111c0,-8 -5,-13 -13,-13 -8,0 -14,5 -14,13 0,8 6,13 15,13 5,0 8,-1 11,-4l-4 -4c-2,1 -4,2 -7,2 -4,0 -7,-2 -7,-5l19 0c0,-1 0,-1 0,-2zm-13 -8c3,0 6,2 6,6l-12 0c0,-4 3,-6 6,-6z"/>
   <path id="7" class="fil3" d="M502 101l0 -3 -8 0 0 26 8 0 0 -12c0,-5 3,-8 7,-8 0,0 1,0 2,0l0 -6c-4,0 -8,1 -9,3z"/>
   <path id="8" class="fil3" d="M531 98c-4,0 -7,1 -9,3l0 -3 -7 0 0 26 7 0 0 -13c0,-5 3,-7 7,-7 3,0 5,2 5,6l0 14 7 0 0 -15c0,-8 -4,-11 -10,-11z"/>
   <path id="9" class="fil3" d="M559 98c-4,0 -9,1 -12,3l3 5c2,-2 5,-3 8,-3 4,0 6,2 6,6l-6 0c-8,0 -11,3 -11,7 0,5 3,8 9,8 4,0 7,-1 8,-3l0 3 7 0 0 -15c0,-8 -4,-11 -12,-11zm-1 21c-3,0 -4,-1 -4,-3 0,-2 1,-3 4,-3l6 0 0 3c-1,2 -3,3 -6,3z"/>
   <path id="10" class="fil3" d="M593 117c-1,1 -2,1 -3,1 -2,0 -4,-1 -4,-3l0 -11 7 0 0 -6 -7 0 0 -6 -7 0 0 6 -4 0 0 6 4 0 0 11c0,6 3,9 9,9 3,0 5,0 7,-1l-2 -6z"/>
   <path id="11" class="fil3" d="M603 94c2,0 4,-2 4,-4 0,-2 -2,-4 -4,-4 -3,0 -5,2 -5,4 0,2 2,4 5,4zm-4 30l7 0 0 -26 -7 0 0 26z"/>
   <polygon id="12" class="fil3" points="632,98 624,116 617,98 609,98 620,124 628,124 639,98 "/>
   <path id="13" class="fil3" d="M667 111c0,-8 -6,-13 -14,-13 -8,0 -14,5 -14,13 0,8 6,13 15,13 5,0 8,-1 11,-4l-4 -4c-2,1 -4,2 -7,2 -4,0 -6,-2 -7,-5l19 0c1,-1 1,-1 1,-2zm-14 -8c4,0 6,2 7,6l-13 0c0,-4 3,-6 6,-6z"/>
   <polygon id="14" class="fil3" points="398,190 406,190 406,163 417,163 417,156 388,156 388,163 398,163 "/>
   <path id="15" class="fil3" d="M436 164c-3,0 -6,1 -8,3l0 -13 -7 0 0 36 7 0 0 -13c0,-4 3,-7 6,-7 4,0 6,2 6,6l0 14 7 0 0 -15c0,-8 -5,-11 -11,-11z"/>
   <path id="16" class="fil3" d="M479 177c0,-8 -5,-13 -13,-13 -8,0 -14,5 -14,13 0,8 6,13 15,13 5,0 8,-1 11,-4l-4 -4c-2,2 -4,2 -7,2 -4,0 -7,-2 -7,-5l19 0c0,0 0,-1 0,-2zm-13 -8c3,0 6,3 6,6l-12 0c0,-3 3,-6 6,-6z"/>
   <path id="17" class="fil3" d="M492 168l0 -4 -8 0 0 26 8 0 0 -12c0,-5 3,-7 7,-7 0,0 1,0 1,0l0 -7c-4,0 -7,1 -8,4z"/>
   <path id="18" class="fil3" d="M515 164c-4,0 -8,1 -11,3l3 5c2,-1 4,-2 7,-2 4,0 6,2 6,5l-6 0c-8,0 -11,3 -11,8 0,4 4,7 10,7 4,0 6,-1 8,-3l0 3 7 0 0 -15c0,-8 -5,-11 -13,-11zm0 21c-3,0 -5,-1 -5,-3 0,-1 2,-3 5,-3l5 0 0 3c-1,2 -3,3 -5,3z"/>
   <path id="19" class="fil3" d="M550 164c-4,0 -6,1 -8,3l0 -3 -8 0 0 35 8 0 0 -12c2,2 5,3 8,3 7,0 13,-5 13,-13 0,-8 -6,-13 -13,-13zm-2 20c-3,0 -6,-2 -6,-7 0,-4 3,-7 6,-7 4,0 7,3 7,7 0,5 -3,7 -7,7z"/>
   <path id="20" class="fil3" d="M571 161c3,0 5,-2 5,-5 0,-2 -2,-4 -5,-4 -2,0 -4,2 -4,4 0,3 2,5 4,5zm-3 29l7 0 0 -26 -7 0 0 26z"/>
   <path id="21" class="fil3" d="M607 177c0,-8 -5,-13 -13,-13 -8,0 -14,5 -14,13 0,8 6,13 15,13 5,0 8,-1 11,-4l-4 -4c-2,2 -4,2 -7,2 -4,0 -7,-2 -7,-5l19 0c0,0 0,-1 0,-2zm-13 -8c3,0 6,3 6,6l-12 0c0,-3 3,-6 6,-6z"/>
   <path id="22" class="fil3" d="M621 190c8,0 12,-3 12,-8 0,-10 -15,-6 -15,-10 0,-1 1,-3 5,-3 2,0 4,1 7,2l3 -5c-3,-1 -7,-2 -10,-2 -8,0 -12,3 -12,8 0,11 15,6 15,10 0,2 -1,3 -5,3 -3,0 -6,-1 -9,-3l-2 6c2,1 7,2 11,2z"/>
   <g>
    <polygon class="fil3" points="343,219 343,0 345,0 345,219 "/>
   </g>
  </g>
 </g>
</svg>
