<?xml version="1.0" encoding="UTF-8"?>
<!DOCTYPE svg PUBLIC "-//W3C//DTD SVG 1.1//EN" "http://www.w3.org/Graphics/SVG/1.1/DTD/svg11.dtd">
<!-- Creator: CorelDRAW X7 -->
<svg xmlns="http://www.w3.org/2000/svg" xml:space="preserve" width="3.99999in" height="3.99999in" version="1.1" style="shape-rendering:geometricPrecision; text-rendering:geometricPrecision; image-rendering:optimizeQuality; fill-rule:evenodd; clip-rule:evenodd"
viewBox="0 0 4000 4000"
 xmlns:xlink="http://www.w3.org/1999/xlink">
 <defs>
  <style type="text/css">
   <![CDATA[
    .fil2 {fill:#54B863}
    .fil0 {fill:#59372D}
    .fil3 {fill:#B5DE9B}
    .fil1 {fill:#E3B67B;fill-rule:nonzero}
   ]]>
  </style>
 </defs>
 <g id="Layer_x0020_1">
  <metadata id="CorelCorpID_0Corel-Layer"/>
  <rect class="fil0" width="4000" height="4000"/>
  <g id="_2331029476800">
   <path class="fil1" d="M3128 1553l0 245 -192 0 0 356c0,49 9,78 27,87 18,9 37,14 57,14 30,0 66,-5 108,-16l0 187 0 83 0 39 -329 0 -1315 0 -32 0 -69 0 -9 0c-145,-6 -263,-40 -353,-102 -100,-69 -149,-180 -149,-334l0 -880 404 0 0 833c0,62 14,107 40,135 26,29 68,43 126,43 48,0 87,-10 118,-31 31,-20 49,-43 55,-70 6,-26 9,-76 9,-151l0 -759 313 0 0 409 205 -409 0 0 428 858 0 -292 -144 0 0 -245 144 0 6 -315 360 -6 0 321 192 0zm-32 33l-193 0 0 -321 -295 5 -6 316 -143 0 0 179 144 0 0 462 -461 -922 -237 474 0 -514 -248 0 0 726c0,47 0,113 -10,159 -9,39 -36,68 -69,89 -40,27 -88,37 -136,37 -55,0 -112,-12 -150,-54 -39,-42 -48,-103 -48,-157l0 -800 -340 0 0 847c0,120 32,235 135,307 98,67 219,92 336,96l1721 0 0 -235c-25,4 -51,7 -76,7 -25,0 -49,-6 -71,-17 -41,-20 -46,-76 -46,-116l0 -389 193 0 0 -179z"/>
   <path class="fil2" d="M2342 2020c-20,-72 -43,-132 -52,-209 -70,74 -170,111 -215,150 -42,32 -109,96 -108,199 42,13 82,33 106,54 0,0 1,0 1,0 18,17 32,35 42,54 31,-151 73,-188 91,-282l-34 193c-9,87 -10,153 2,240 239,-13 233,-248 167,-399z"/>
   <path class="fil3" d="M2106 2433c-96,-70 -64,-84 -144,-167 89,86 102,120 169,157 -4,-94 -19,-147 -70,-195 -36,-31 -147,-78 -215,-61 51,52 -34,287 260,266z"/>
   <path class="fil1" d="M1150 2707l0 -53 13 0 0 47c0,4 0,8 0,13 1,4 2,8 4,11 2,3 4,6 8,8 3,2 7,3 13,3 5,0 10,-1 13,-3 3,-2 6,-5 8,-8 1,-3 3,-7 3,-11 1,-5 1,-9 1,-13l0 -47 13 0 0 53c0,13 -4,23 -10,30 -6,7 -16,10 -28,10 -13,0 -22,-3 -29,-10 -6,-7 -9,-17 -9,-30z"/>
   <path id="1" class="fil1" d="M1236 2768l-2 0 -1 -8 0 0c3,0 4,0 6,0 2,-1 3,-2 4,-3 1,-1 1,-3 2,-4 0,-2 0,-5 0,-7l0 -92 13 0 0 96c0,12 -7,18 -22,18z"/>
   <path id="2" class="fil1" d="M1277 2707l0 -53 13 0 0 47c0,4 0,8 1,13 0,4 2,8 3,11 2,3 5,6 8,8 3,2 8,3 13,3 6,0 10,-1 13,-3 4,-2 6,-5 8,-8 2,-3 3,-7 4,-11 0,-5 0,-9 0,-13l0 -47 13 0 0 53c0,13 -3,23 -10,30 -6,7 -15,10 -28,10 -12,0 -22,-3 -28,-10 -6,-7 -10,-17 -10,-30z"/>
   <path id="3" class="fil1" d="M1471 2745l-13 0 -9 -24 -35 0 -9 24 -13 0 33 -91 13 0 33 91zm-26 -35l-13 -38 -14 38 27 0z"/>
   <polygon id="4" class="fil1" points="1536,2745 1482,2745 1482,2654 1495,2654 1495,2734 1536,2734 "/>
   <polygon id="5" class="fil1" points="1596,2665 1569,2665 1569,2745 1557,2745 1557,2665 1530,2665 1530,2654 1596,2654 "/>
   <polygon id="6" class="fil1" points="1665,2745 1608,2745 1608,2654 1664,2654 1664,2665 1620,2665 1620,2692 1655,2692 1655,2703 1620,2703 1620,2734 1665,2734 "/>
   <path id="7" class="fil1" d="M1746 2745l-14 0 -20 -35 -19 0 0 35 -13 0 0 -91 30 0c5,0 9,1 13,2 4,1 7,2 10,4 3,2 5,5 6,9 1,3 2,7 2,12 0,6 -1,11 -4,15 -3,5 -7,8 -13,11l22 38zm-37 -81l-16 0 0 34 20 0c2,0 4,0 6,-1 2,-1 3,-2 5,-3 1,-2 2,-3 3,-6 1,-2 1,-4 1,-7 0,-5 -1,-9 -4,-12 -4,-3 -8,-5 -15,-5z"/>
   <polygon id="8" class="fil1" points="1829,2745 1819,2745 1771,2673 1771,2745 1759,2745 1759,2654 1772,2654 1817,2722 1817,2654 1829,2654 "/>
   <path id="9" class="fil1" d="M1919 2745l-13 0 -9 -24 -35 0 -8 24 -13 0 32 -91 13 0 33 91zm-26 -35l-13 -38 -14 38 27 0z"/>
   <polygon id="10" class="fil1" points="1980,2665 1954,2665 1954,2745 1941,2745 1941,2665 1915,2665 1915,2654 1980,2654 "/>
   <polygon id="11" class="fil1" points="2005,2745 1993,2745 1993,2654 2005,2654 "/>
   <polygon id="12" class="fil1" points="2099,2654 2064,2745 2051,2745 2016,2654 2029,2654 2057,2731 2086,2654 "/>
   <polygon id="13" class="fil1" points="2166,2745 2110,2745 2110,2654 2165,2654 2165,2665 2122,2665 2122,2692 2156,2692 2156,2703 2122,2703 2122,2734 2166,2734 "/>
   <polygon id="14" class="fil1" points="2268,2665 2242,2665 2242,2745 2229,2745 2229,2665 2203,2665 2203,2654 2268,2654 "/>
   <polygon id="15" class="fil1" points="2357,2745 2344,2745 2344,2704 2293,2704 2293,2745 2280,2745 2280,2654 2293,2654 2293,2692 2344,2692 2344,2654 2357,2654 "/>
   <polygon id="16" class="fil1" points="2434,2745 2377,2745 2377,2654 2433,2654 2433,2665 2390,2665 2390,2692 2424,2692 2424,2703 2390,2703 2390,2734 2434,2734 "/>
   <path id="17" class="fil1" d="M2515 2745l-13 0 -20 -35 -19 0 0 35 -14 0 0 -91 30 0c5,0 10,1 14,2 3,1 7,2 9,4 3,2 5,5 6,9 2,3 3,7 3,12 0,6 -2,11 -5,15 -3,5 -7,8 -12,11l21 38zm-36 -81l-16 0 0 34 19 0c2,0 4,0 6,-1 2,-1 4,-2 5,-3 1,-2 3,-3 3,-6 1,-2 2,-4 2,-7 0,-5 -2,-9 -5,-12 -3,-3 -8,-5 -14,-5z"/>
   <path id="18" class="fil1" d="M2597 2745l-13 0 -9 -24 -35 0 -9 24 -13 0 33 -91 13 0 33 91zm-26 -35l-13 -38 -14 38 27 0z"/>
   <path id="19" class="fil1" d="M2621 2714l0 31 -13 0 0 -91 29 0c5,0 9,1 12,1 4,1 8,2 10,4 3,2 6,5 7,9 2,4 3,9 3,15 0,6 -1,10 -3,14 -1,4 -4,8 -6,10 -3,2 -6,4 -10,5 -3,1 -6,2 -9,2l-20 0zm0 -49l0 38 18 0c6,0 10,-2 13,-5 3,-4 4,-9 4,-15 0,-3 0,-6 -1,-8 -1,-2 -2,-4 -3,-6 -2,-1 -4,-2 -7,-3 -3,0 -6,-1 -10,-1l-14 0z"/>
   <polygon id="20" class="fil1" points="2695,2745 2683,2745 2683,2654 2695,2654 "/>
   <polygon id="21" class="fil1" points="2772,2745 2716,2745 2716,2654 2771,2654 2771,2665 2728,2665 2728,2692 2762,2692 2762,2703 2728,2703 2728,2734 2772,2734 "/>
   <path id="22" class="fil1" d="M2814 2747c-13,0 -23,-2 -30,-6l2 -14c8,6 17,9 28,9 3,0 6,0 9,-1 2,0 5,-1 7,-2 2,-2 3,-3 4,-5 1,-2 2,-4 2,-6 0,-2 -1,-5 -2,-6 -1,-2 -3,-4 -5,-5 -2,-1 -4,-3 -7,-4 -3,-1 -6,-2 -10,-3l-9 -3c-7,-3 -12,-6 -16,-9 -3,-4 -4,-8 -4,-13 0,-3 0,-6 1,-9 1,-3 3,-6 5,-8 3,-3 6,-5 10,-7 5,-2 10,-3 16,-3 3,0 6,1 8,1 3,0 6,1 8,1 3,1 5,2 8,2 2,1 4,2 5,3l-1 13c-11,-6 -20,-8 -26,-8 -3,0 -5,0 -8,0 -2,1 -5,2 -6,3 -2,1 -4,2 -5,4 -1,2 -2,4 -2,6 0,4 2,7 5,9 3,2 8,4 15,6 2,1 3,1 4,1 1,1 1,1 2,1 1,0 2,1 3,1 2,1 4,1 7,3l4 2c1,1 2,1 3,2 1,0 1,1 2,1l3 3c2,2 3,5 4,7 1,3 1,5 1,9 0,2 0,5 -1,8 -1,3 -2,6 -5,8 -2,3 -6,5 -10,7 -5,1 -11,2 -19,2z"/>
  </g>
 </g>
</svg>
