<?xml version="1.0" encoding="UTF-8"?>
<!DOCTYPE svg PUBLIC "-//W3C//DTD SVG 1.1//EN" "http://www.w3.org/Graphics/SVG/1.1/DTD/svg11.dtd">
<!-- Creator: CorelDRAW X7 -->
<svg xmlns="http://www.w3.org/2000/svg" xml:space="preserve" width="0.999992in" height="0.999992in" version="1.1" style="shape-rendering:geometricPrecision; text-rendering:geometricPrecision; image-rendering:optimizeQuality; fill-rule:evenodd; clip-rule:evenodd"
viewBox="0 0 1000 1000"
 xmlns:xlink="http://www.w3.org/1999/xlink">
 <defs>
  <style type="text/css">
   <![CDATA[
    .fil2 {fill:#54B863}
    .fil0 {fill:#59372D}
    .fil3 {fill:#B5DE9B}
    .fil1 {fill:#E3B67B;fill-rule:nonzero}
   ]]>
  </style>
 </defs>
 <g id="Layer_x0020_1">
  <metadata id="CorelCorpID_0Corel-Layer"/>
  <rect class="fil0" width="1000" height="1000"/>
  <g id="_2243310734944">
   <path class="fil1" d="M782 388l0 61 -48 0 0 90c0,12 2,19 7,21 4,3 9,4 14,4 8,0 17,-2 27,-4l0 47 0 20 0 10 -82 0 -329 0 -8 0 -17 0 -2 0c-37,-1 -66,-10 -89,-26 -25,-17 -37,-44 -37,-83l0 -220 101 0 0 208c0,16 3,27 10,34 6,7 17,11 31,11 12,0 22,-3 30,-8 8,-5 12,-11 14,-17 1,-7 2,-20 2,-38l0 -190 78 0 0 102 51 -102 0 0 108 214 0 -73 -36 0 0 -61 36 0 1 -78 90 -2 0 80 48 0zm-8 8l-48 0 0 -80 -74 2 -1 78 -36 0 0 45 36 0 0 116 -116 -231 -59 119 0 -129 -62 0 0 182c0,11 0,28 -2,39 -3,10 -9,17 -17,23 -11,7 -23,9 -35,9 -13,0 -27,-3 -37,-13 -10,-11 -12,-26 -12,-40l0 -200 -85 0 0 212c0,30 8,59 34,77 24,17 54,23 84,24l430 0 0 -59c-6,1 -13,2 -19,2 -6,0 -12,-2 -18,-4 -10,-5 -11,-20 -11,-29l0 -98 48 0 0 -45z"/>
   <path class="fil2" d="M586 505c-6,-18 -11,-33 -13,-52 -18,18 -43,28 -54,37 -11,8 -28,24 -27,50 10,3 20,8 26,13 0,0 0,0 0,1 5,4 9,8 11,13 8,-38 18,-47 23,-71l-9 49c-2,22 -2,38 1,60 60,-4 58,-62 42,-100z"/>
   <path class="fil3" d="M526 608c-23,-17 -15,-21 -35,-42 22,22 25,30 42,40 -1,-24 -5,-37 -18,-49 -9,-8 -36,-20 -54,-15 13,13 -8,71 65,66z"/>
   <path class="fil1" d="M288 677l0 -13 3 0 0 11c0,1 0,2 0,3 0,1 0,2 1,3 0,1 1,2 2,2 0,1 2,1 3,1 1,0 2,0 3,-1 1,0 2,-1 2,-2 1,-1 1,-2 1,-3 0,-1 0,-2 0,-3l0 -11 3 0 0 13c0,3 0,5 -2,7 -2,2 -4,3 -7,3 -3,0 -6,-1 -7,-3 -2,-2 -2,-4 -2,-7z"/>
   <path id="1" class="fil1" d="M309 692l-1 0 0 -2 0 0c1,0 1,0 2,0 0,0 0,0 1,-1 0,0 0,0 0,-1 0,0 0,-1 0,-2l0 -22 3 0 0 23c0,3 -1,5 -5,5z"/>
   <path id="2" class="fil1" d="M319 677l0 -13 3 0 0 11c0,1 1,2 1,3 0,1 0,2 1,3 0,1 1,2 2,2 0,1 1,1 3,1 1,0 2,0 3,-1 1,0 2,-1 2,-2 0,-1 1,-2 1,-3 0,-1 0,-2 0,-3l0 -11 3 0 0 13c0,3 -1,5 -2,7 -2,2 -4,3 -7,3 -3,0 -6,-1 -7,-3 -2,-2 -3,-4 -3,-7z"/>
   <path id="3" class="fil1" d="M368 686l-4 0 -2 -6 -8 0 -3 6 -3 0 8 -22 4 0 8 22zm-7 -9l-3 -9 -3 9 6 0z"/>
   <polygon id="4" class="fil1" points="384,686 371,686 371,664 374,664 374,684 384,684 "/>
   <polygon id="5" class="fil1" points="399,666 392,666 392,686 389,686 389,666 383,666 383,664 399,664 "/>
   <polygon id="6" class="fil1" points="416,686 402,686 402,664 416,664 416,666 405,666 405,673 414,673 414,676 405,676 405,684 416,684 "/>
   <path id="7" class="fil1" d="M436 686l-3 0 -5 -9 -5 0 0 9 -3 0 0 -22 7 0c2,0 3,0 4,0 1,0 2,1 2,1 1,1 1,1 2,2 0,1 0,2 0,3 0,2 0,3 -1,4 -1,1 -2,2 -3,3l5 9zm-9 -20l-4 0 0 8 5 0c1,0 1,0 2,0 0,0 1,0 1,-1 0,0 1,0 1,-1 0,0 0,-1 0,-2 0,-1 0,-2 -1,-3 -1,-1 -2,-1 -4,-1z"/>
   <polygon id="8" class="fil1" points="457,686 455,686 443,668 443,686 440,686 440,664 443,664 454,681 454,664 457,664 "/>
   <path id="9" class="fil1" d="M480 686l-4 0 -2 -6 -8 0 -3 6 -3 0 8 -22 4 0 8 22zm-7 -9l-3 -9 -3 9 6 0z"/>
   <polygon id="10" class="fil1" points="495,666 488,666 488,686 485,686 485,666 479,666 479,664 495,664 "/>
   <polygon id="11" class="fil1" points="501,686 498,686 498,664 501,664 "/>
   <polygon id="12" class="fil1" points="525,664 516,686 513,686 504,664 507,664 514,683 521,664 "/>
   <polygon id="13" class="fil1" points="542,686 527,686 527,664 541,664 541,666 531,666 531,673 539,673 539,676 531,676 531,684 542,684 "/>
   <polygon id="14" class="fil1" points="567,666 560,666 560,686 557,686 557,666 551,666 551,664 567,664 "/>
   <polygon id="15" class="fil1" points="589,686 586,686 586,676 573,676 573,686 570,686 570,664 573,664 573,673 586,673 586,664 589,664 "/>
   <polygon id="16" class="fil1" points="609,686 594,686 594,664 608,664 608,666 597,666 597,673 606,673 606,676 597,676 597,684 609,684 "/>
   <path id="17" class="fil1" d="M629 686l-4 0 -5 -9 -4 0 0 9 -4 0 0 -22 8 0c1,0 2,0 3,0 1,0 2,1 3,1 0,1 1,1 1,2 0,1 1,2 1,3 0,2 -1,3 -1,4 -1,1 -2,2 -4,3l6 9zm-9 -20l-4 0 0 8 5 0c0,0 1,0 1,0 0,0 1,0 1,-1 1,0 1,0 1,-1 0,0 0,-1 0,-2 0,-1 0,-2 -1,-3 -1,-1 -2,-1 -3,-1z"/>
   <path id="18" class="fil1" d="M649 686l-3 0 -2 -6 -9 0 -2 6 -3 0 8 -22 3 0 8 22zm-6 -9l-4 -9 -3 9 7 0z"/>
   <path id="19" class="fil1" d="M655 678l0 8 -3 0 0 -22 7 0c1,0 2,0 3,0 1,0 2,0 3,1 1,0 1,1 2,2 0,1 0,2 0,4 0,1 0,2 0,3 -1,1 -1,2 -2,3 -1,0 -2,1 -2,1 -1,0 -2,0 -3,0l-5 0zm0 -12l0 10 5 0c1,0 2,-1 3,-2 1,0 1,-2 1,-3 0,-1 0,-2 0,-2 0,-1 -1,-1 -1,-2 -1,0 -1,0 -2,0 0,-1 -1,-1 -2,-1l-4 0z"/>
   <polygon id="20" class="fil1" points="674,686 671,686 671,664 674,664 "/>
   <polygon id="21" class="fil1" points="693,686 679,686 679,664 693,664 693,666 682,666 682,673 691,673 691,676 682,676 682,684 693,684 "/>
   <path id="22" class="fil1" d="M703 687c-3,0 -5,-1 -7,-2l0 -3c2,1 5,2 8,2 0,0 1,0 2,0 0,0 1,-1 1,-1 1,0 1,-1 2,-1 0,0 0,-1 0,-2 0,0 0,-1 0,-1 -1,-1 -1,-1 -2,-1 0,-1 -1,-1 -2,-1 0,-1 -1,-1 -2,-1l-2 -1c-2,0 -3,-1 -4,-2 -1,-1 -1,-2 -1,-3 0,-1 0,-2 0,-2 0,-1 1,-2 1,-3 1,0 2,-1 3,-1 1,-1 2,-1 4,-1 0,0 1,0 2,0 1,0 1,0 2,1 1,0 1,0 2,0 0,0 1,0 1,1l0 3c-3,-1 -5,-2 -7,-2 0,0 -1,0 -2,0 0,0 -1,0 -1,1 -1,0 -1,0 -2,1 0,0 0,1 0,1 0,1 0,2 1,2 1,1 2,2 4,2 0,0 1,0 1,0 0,0 0,0 1,1 0,0 0,0 0,0 1,0 1,0 2,0l1 1c0,0 1,0 1,0 0,1 0,1 0,1l1 1c1,0 1,1 1,1 0,1 0,2 0,2 0,1 0,2 0,3 0,0 -1,1 -1,2 -1,0 -2,1 -3,1 -1,1 -3,1 -5,1z"/>
  </g>
 </g>
</svg>
