<?xml version="1.0" encoding="UTF-8"?>
<!DOCTYPE svg PUBLIC "-//W3C//DTD SVG 1.1//EN" "http://www.w3.org/Graphics/SVG/1.1/DTD/svg11.dtd">
<!-- Creator: CorelDRAW X7 -->
<svg xmlns="http://www.w3.org/2000/svg" xml:space="preserve" width="0.666669in" height="0.666669in" version="1.1" style="shape-rendering:geometricPrecision; text-rendering:geometricPrecision; image-rendering:optimizeQuality; fill-rule:evenodd; clip-rule:evenodd"
viewBox="0 0 667 667"
 xmlns:xlink="http://www.w3.org/1999/xlink">
 <defs>
  <style type="text/css">
   <![CDATA[
    .fil2 {fill:#2D2D2D}
    .fil6 {fill:#631A15}
    .fil4 {fill:#693223}
    .fil5 {fill:#7C211A}
    .fil3 {fill:#843F2C}
    .fil1 {fill:#A9382D}
    .fil0 {fill:#EBD7B5}
   ]]>
  </style>
 </defs>
 <g id="Layer_x0020_1">
  <metadata id="CorelCorpID_0Corel-Layer"/>
  <polygon class="fil0" points="0,667 667,667 667,0 0,0 "/>
  <path class="fil1" d="M78 513c4,5 7,8 11,12 7,7 17,16 24,22 5,4 9,7 13,11 18,13 36,26 58,36 99,50 199,51 300,2 17,-8 43,-25 57,-36l25 -22c4,-5 20,-20 22,-25 -3,-1 -2,-2 -8,-7l-22 -19c-10,-8 -22,-15 -34,-22 -23,-15 -50,-24 -78,-34 -4,6 -12,13 -18,18 -7,5 -13,10 -21,15 -3,1 -3,2 -5,3l-17 15c-4,3 -6,5 -9,8 -2,1 -3,2 -4,4 -2,1 -3,2 -5,3l-13 12c-6,5 -13,12 -21,18 -5,-3 -16,-14 -21,-18l-74 -66c-3,-3 -2,-1 -7,-6 -1,-2 -2,-2 -3,-3l-4 -3c-11,2 -33,10 -43,14 -26,13 -49,24 -72,42 -5,4 -11,8 -16,13l-15 13z"/>
  <path class="fil2" d="M267 413c1,-4 2,-8 3,-13 -2,-2 -3,-2 -5,-4 -2,-2 -3,-3 -5,-5 -3,-3 -5,-5 -9,-9 -5,-5 -11,-14 -16,-21 -8,-12 -20,-33 -24,-50 -36,17 -52,-66 -13,-62 0,-12 0,-38 5,-48l14 -4c2,-1 4,-2 7,-3 75,-22 135,-24 212,-1 6,1 27,5 28,10l4 26 0 19c11,-1 16,5 20,12 4,8 5,19 2,27 -4,14 -18,34 -34,24 -6,11 -6,22 -25,49 -11,17 -20,25 -35,39l4 13c51,0 92,-17 110,-51 20,-36 1,-100 -9,-137 -16,-67 -28,-120 -96,-147 -22,-8 -45,-12 -70,-12 -56,0 -91,14 -120,42 -30,28 -40,74 -50,114 -8,35 -24,106 -9,140 2,7 14,19 18,23 26,22 55,29 93,29z"/>
  <path class="fil3" d="M217 197l-14 4c-5,10 -5,36 -5,48 -39,-4 -23,79 13,62 4,17 16,38 24,50 5,7 11,16 16,21 4,4 6,6 9,9 2,2 3,3 5,5 2,2 3,2 5,4 7,5 12,8 17,12 5,4 20,9 26,10 19,4 40,1 56,-6 2,-1 1,0 4,-1 8,-4 2,-3 10,-7 4,-3 8,-6 13,-9 15,-14 24,-22 35,-39 19,-27 19,-38 25,-49 0,-5 3,-10 4,-14 1,-5 3,-10 4,-15 2,-10 3,-23 4,-34l0 -19c-17,-2 -74,-45 -185,-41 -34,1 -46,8 -66,9z"/>
  <path class="fil4" d="M270 400c-1,5 -2,9 -3,13l0 0c0,1 0,1 0,1l13 17c27,28 44,43 89,44l1 1c1,-2 2,-2 3,-3l8 -7c2,-2 1,-1 3,-2l36 -30c7,-6 5,-4 7,-8 -4,-1 -23,-4 -25,-6l-1 -3c-1,-1 -1,-3 -1,-5l-4 -13c-5,3 -9,6 -13,9 -8,4 -2,3 -10,7 -3,1 -2,0 -4,1 -16,7 -37,10 -56,6 -6,-1 -21,-6 -26,-10 -5,-4 -10,-7 -17,-12z"/>
  <path class="fil4" d="M217 197c20,-1 32,-8 66,-9 111,-4 168,39 185,41l-4 -26c-1,-5 -22,-9 -28,-10 -77,-23 -137,-21 -212,1 -3,1 -5,2 -7,3z"/>
  <path class="fil3" d="M238 428c4,0 4,1 6,3l24 20c1,1 0,1 2,3 2,1 2,1 4,2l55 47c1,1 2,3 3,4 5,-2 5,-4 10,-8 2,-1 2,-1 4,-3 3,-3 3,-2 5,-4 3,-3 1,-1 4,-4 3,-2 2,-2 5,-4 3,-2 2,-2 4,-4 3,-3 3,0 5,-5 -45,-1 -62,-16 -89,-44l-13 -17c0,0 0,0 0,-1 -3,10 -2,8 -12,10 -5,1 -14,2 -17,5z"/>
  <path class="fil5" d="M224 431l4 3c1,1 2,1 3,3 5,5 4,3 7,6l74 66c5,4 16,15 21,18 8,-6 15,-13 21,-18l13 -12c2,-1 3,-2 5,-3 1,-2 2,-3 4,-4 3,-3 5,-5 9,-8l17 -15c-5,1 -10,4 -16,5 -5,1 -12,2 -16,4l-1 -1c-2,5 -2,2 -5,5 -2,2 -1,2 -4,4 -3,2 -2,2 -5,4 -3,3 -1,1 -4,4 -2,2 -2,1 -5,4 -2,2 -2,2 -4,3 -5,4 -5,6 -10,8 -1,-1 -2,-3 -3,-4l-55 -47c-2,-1 -2,-1 -4,-2 -2,-2 -1,-2 -2,-3l-24 -20c-2,-2 -2,-3 -6,-3 -4,-1 -9,1 -14,3z"/>
  <path class="fil4" d="M456 311c16,10 30,-10 34,-24 3,-8 2,-19 -2,-27 -4,-7 -9,-13 -20,-12 -1,11 -2,24 -4,34 -1,5 -3,10 -4,15 -1,4 -4,9 -4,14z"/>
  <path class="fil6" d="M370 476c4,-2 11,-3 16,-4 6,-1 11,-4 16,-5 2,-1 2,-2 5,-3 4,-6 29,-26 34,-31 2,-2 1,-1 2,-3l-16 -4c-2,4 0,2 -7,8l-36 30c-2,1 -1,0 -3,2l-8 7c-1,1 -2,1 -3,3z"/>
  <path class="fil3" d="M407 464c8,-5 14,-10 21,-15 6,-5 14,-12 18,-18l-3 -1c-1,2 0,1 -2,3 -5,5 -30,25 -34,31z"/>
 </g>
</svg>
