<?xml version="1.0" encoding="UTF-8"?>
<!DOCTYPE svg PUBLIC "-//W3C//DTD SVG 1.1//EN" "http://www.w3.org/Graphics/SVG/1.1/DTD/svg11.dtd">
<!-- Creator: CorelDRAW X7 -->
<svg xmlns="http://www.w3.org/2000/svg" xml:space="preserve" width="0.666669in" height="0.666669in" version="1.1" style="shape-rendering:geometricPrecision; text-rendering:geometricPrecision; image-rendering:optimizeQuality; fill-rule:evenodd; clip-rule:evenodd"
viewBox="0 0 667 667"
 xmlns:xlink="http://www.w3.org/1999/xlink">
 <defs>
  <style type="text/css">
   <![CDATA[
    .fil3 {fill:#2D2D2D}
    .fil6 {fill:#631A14}
    .fil4 {fill:#6A3223}
    .fil5 {fill:#7C211A}
    .fil2 {fill:#833F2C}
    .fil1 {fill:#A9382D}
    .fil0 {fill:#EBD7B5}
   ]]>
  </style>
 </defs>
 <g id="Layer_x0020_1">
  <metadata id="CorelCorpID_0Corel-Layer"/>
  <g id="_3119741406752">
   <polygon class="fil0" points="0,667 667,667 667,0 0,0 "/>
   <g>
    <path class="fil1" d="M433 451c-8,17 -25,31 -41,40 -20,12 -40,16 -66,15 -46,-1 -86,-33 -97,-65 -23,5 -58,22 -76,32 -13,8 -47,31 -58,43 -1,1 0,1 -1,2 -3,2 0,0 -3,1 2,4 7,9 10,12 5,4 8,7 12,11 21,19 27,22 50,38 44,30 111,53 170,52 54,0 102,-12 143,-34 36,-18 63,-39 89,-67 3,-3 7,-9 11,-12 -5,-1 -5,-3 -8,-6 -21,-18 -30,-25 -55,-40 -17,-11 -53,-27 -76,-32 0,3 0,3 -1,5 -2,3 -2,3 -3,5z"/>
    <path class="fil2" d="M238 212c-3,1 -6,8 -20,9l-7 1c0,0 -1,0 -1,0 0,0 0,0 0,0 -4,9 -5,35 -5,46 -11,2 -13,1 -18,10 -5,14 -7,22 1,36 2,5 7,10 11,13 7,5 10,4 17,1 3,4 11,31 31,57 8,10 12,15 22,23l4 4c0,0 0,1 0,1 4,4 5,4 8,6 0,0 1,0 1,0l23 12c25,7 44,5 68,-6l13 -8c0,0 2,-1 2,-1 0,0 0,-1 0,-1l5 -3c1,-4 26,-21 46,-61 2,-4 8,-21 10,-24 0,-4 6,-21 8,-28 1,-9 4,-23 4,-32l5 1 -4 0 -2 -29 0 6c-11,-1 -23,-3 -31,-9 -8,-5 -12,-13 -21,-17 -22,-10 -41,14 -63,-2 -7,-6 -13,-13 -27,-9 -11,4 -14,11 -24,15 -13,5 -19,-6 -25,-10 -9,-7 -21,-5 -31,-1z"/>
    <path class="fil3" d="M187 278c5,-9 7,-8 18,-10 0,-11 1,-37 5,-46 0,0 0,0 0,0 0,0 1,0 1,0l7 -1c14,-1 17,-8 20,-9 13,-26 30,-9 37,-7 18,8 32,-9 41,-13 14,-6 21,2 28,8 23,17 42,-8 63,2 16,8 13,17 36,23 17,6 14,-1 17,14l2 29 4 0c8,2 7,4 12,7 18,-15 9,-35 13,-46 5,-11 27,-18 20,-37 -2,-8 -9,-10 -12,-18 -6,-17 16,-28 -7,-43 -8,-7 -11,-5 -22,-7 -28,-7 -2,-45 -44,-47 -22,-1 -28,18 -39,-9 -3,-8 -8,-12 -15,-15 -9,-3 -19,-1 -25,3 -5,4 -8,12 -13,15 -14,8 -20,-18 -44,-12 -23,6 -18,25 -30,30 -13,6 -30,-19 -44,-5 -6,6 -9,10 -10,21 -1,31 -18,19 -34,25 -7,3 -10,11 -9,20 0,9 5,15 5,24 -1,10 -7,13 -10,19 -3,8 -2,19 2,25 4,7 9,8 14,15 6,10 2,15 2,26 1,9 6,16 11,19z"/>
    <path class="fil4" d="M273 413c-1,3 -2,8 -2,11 0,9 29,35 38,42 8,5 17,10 28,14 19,6 28,1 38,3 0,0 0,0 0,0l2 0c2,-1 3,-1 4,-2l13 -9c9,-8 4,-4 11,-10 3,-3 1,1 5,-5 1,-2 0,0 1,-2l6 -8c2,-4 4,-5 5,-10 -4,-1 -8,-2 -12,-3 -2,0 -4,0 -6,-1 -1,0 -2,0 -3,0 -4,-2 4,1 -1,-1l-1 -1c-4,-4 -4,-13 -6,-19l-5 3c0,0 0,1 0,1 0,0 -2,1 -2,1l-13 8c-24,11 -43,13 -68,6l-23 -12c0,0 -1,0 -1,0 -3,-2 -4,-2 -8,-6z"/>
    <path class="fil4" d="M238 212c10,-4 22,-6 31,1 6,4 12,15 25,10 10,-4 13,-11 24,-15 14,-4 20,3 27,9 22,16 41,-8 63,2 9,4 13,12 21,17 8,6 20,8 31,9l0 -6c-3,-15 0,-8 -17,-14 -23,-6 -20,-15 -36,-23 -21,-10 -40,15 -63,-2 -7,-6 -14,-14 -28,-8 -9,4 -23,21 -41,13 -7,-2 -24,-19 -37,7z"/>
    <path class="fil5" d="M229 441c11,32 51,64 97,65 26,1 46,-3 66,-15 16,-9 33,-23 41,-40 -5,3 -13,11 -24,18 -14,9 -18,8 -28,12 -1,1 -2,1 -4,2l-2 0c0,0 0,0 0,0 -2,2 -1,1 -3,2l-15 6c-23,5 -44,2 -63,-6 -19,-7 -46,-31 -49,-48l-16 4z"/>
    <path class="fil2" d="M245 437c3,17 30,41 49,48 19,8 40,11 63,6l15 -6c2,-1 1,0 3,-2 -10,-2 -19,3 -38,-3 -11,-4 -20,-9 -28,-14 -9,-7 -38,-33 -38,-42 -2,2 -2,5 -4,8 -1,1 -8,2 -11,2 -4,1 -8,2 -11,3z"/>
    <path class="fil4" d="M449 327c14,9 25,-4 30,-13 3,-5 5,-13 4,-20 0,-9 -2,-12 -5,-19 -5,-3 -4,-5 -12,-7l-5 -1c0,9 -3,23 -4,32 -2,7 -8,24 -8,28z"/>
    <path class="fil6" d="M381 481c10,-4 14,-3 28,-12 11,-7 19,-15 24,-18 1,-2 1,-2 3,-5 1,-2 1,-2 1,-5l-15 -4c-1,5 -3,6 -5,10l-6 8c-1,2 0,0 -1,2 -4,6 -2,2 -5,5 -7,6 -2,2 -11,10l-13 9z"/>
   </g>
  </g>
 </g>
</svg>
